#N canvas 448 205 687 737 12;
#X obj 154 450 dac~;
#X obj 179 375 *~;
#X obj 196 72 unpackOSC;
#X floatatom 196 165 5 0 0 0 - - -;
#X floatatom 270 163 5 0 0 0 - - -;
#X obj 151 299 osc~;
#X obj 348 283 vline~;
#X obj 380 177 bng 15 250 50 0 empty empty empty 17 7 0 10 -262144
-1 -1;
#X obj 196 301 *~;
#X obj 196 27 udpreceive 8000;
#X floatatom 434 163 5 0 0 0 - - -;
#X floatatom 511 181 5 0 0 0 - - -;
#X obj 196 117 mrpeach/routeOSC /vol /freq /bang /boxX /boxY /boxStay
;
#X msg 429 238 10 0 \, 0 \$1;
#X connect 1 0 0 0;
#X connect 1 0 0 1;
#X connect 2 0 12 0;
#X connect 3 0 8 0;
#X connect 5 0 1 0;
#X connect 6 0 8 1;
#X connect 7 0 13 0;
#X connect 8 0 1 1;
#X connect 9 0 2 0;
#X connect 12 0 3 0;
#X connect 12 1 4 0;
#X connect 12 1 5 0;
#X connect 12 2 7 0;
#X connect 12 3 10 0;
#X connect 12 4 11 0;
#X connect 12 5 13 0;
#X connect 13 0 6 0;
